# xmcd CD database file
# Copyright (C) 1993-1998 Ti Kan
# 
# Track frame offsets:
#     150
#     13943
#     26963
#     40940
#     55018
#     69233
#     83783
#     97650
#     111193
#     125190
#     140183
#     154123
#     168058
#     182120
#     195495
#     209673
#     224163
#     237770
#     251085
#     265278
#     277993
#     292525
#     307645
#     321358
# 
# Disc length: 4462 seconds
# 
# Revision: 1
# Processed by: cddbd v1.4b41PL1 Copyright (c) Steve Scherf et al.
# Submitted via: DiscPlay 4.0.4
# 
DISCID=5d116c18
DTITLE=Charley Patton - Founder of the Delta Blues
DYEAR=1900
DGENRE=
TTITLE0=Screamin' And Hollerin' The Blues
TTITLE1=Down The Dirt Road Blues
TTITLE2=Mississippi Bo Weavil Blues
TTITLE3=Green River Blues
TTITLE4=A Spoonful Blues
TTITLE5=Moon Going Down
TTITLE6=Tom Rushen Blues
TTITLE7=Elder Green Blues
TTITLE8=When Your Way Gets Dark
TTITLE9=Dry Well Blues
TTITLE10=High Water Everywhere Part 1
TTITLE11=High Water Everywhere Part 2
TTITLE12=Shake It And Break It
TTITLE13=Pony Blues
TTITLE14=Bird Nest Bound
TTITLE15=Some These Days I'll Be Gone
TTITLE16=Banty Rooster Blues
TTITLE17=34 Blues
TTITLE18=High Sheriff Blues
TTITLE19=Stone Pony Blues
TTITLE20=Hammer Blues
TTITLE21=It Won't Be Long
TTITLE22=Going To Move To Alabama
TTITLE23=Poor Me
EXTD=
EXTT0=
EXTT1=
EXTT2=
EXTT3=
EXTT4=
EXTT5=
EXTT6=
EXTT7=
EXTT8=
EXTT9=
EXTT10=
EXTT11=
EXTT12=
EXTT13=
EXTT14=
EXTT15=
EXTT16=
EXTT17=
EXTT18=
EXTT19=
EXTT20=
EXTT21=
EXTT22=
EXTT23=
PLAYORDER=
